<?xml version="1.0" encoding="UTF-8" standalone="no"?>
<!-- Generated by IcoMoon.io -->

<svg
   version="1.1"
   width="16"
   height="16"
   viewBox="0 0 16 16"
   id="svg12"
   sodipodi:docname="carrito.svg"
   inkscape:version="1.2.1 (9c6d41e410, 2022-07-14)"
   xmlns:inkscape="http://www.inkscape.org/namespaces/inkscape"
   xmlns:sodipodi="http://sodipodi.sourceforge.net/DTD/sodipodi-0.dtd"
   xmlns="http://www.w3.org/2000/svg"
   xmlns:svg="http://www.w3.org/2000/svg">
  <defs
     id="defs16" />
  <sodipodi:namedview
     id="namedview14"
     pagecolor="#ffffff"
     bordercolor="#000000"
     borderopacity="0.25"
     inkscape:showpageshadow="2"
     inkscape:pageopacity="0.0"
     inkscape:pagecheckerboard="0"
     inkscape:deskcolor="#d1d1d1"
     showgrid="false"
     inkscape:zoom="14.75"
     inkscape:cx="8"
     inkscape:cy="8"
     inkscape:window-width="1440"
     inkscape:window-height="837"
     inkscape:window-x="-8"
     inkscape:window-y="-8"
     inkscape:window-maximized="1"
     inkscape:current-layer="svg12" />
  <path
     fill="#444444"
     d="M14 13.1v-1.1h-9.4l0.6-1.1 9.2-0.9 1.6-6h-12.3l-0.7-3h-3v1h2.2l2.1 8.4-1.3 2.6v1.5c0 0.8 0.7 1.5 1.5 1.5s1.5-0.7 1.5-1.5-0.7-1.5-1.5-1.5h7.5v1.5c0 0.8 0.7 1.5 1.5 1.5s1.5-0.7 1.5-1.5c0-0.7-0.4-1.2-1-1.4zM4 5h10.7l-1.1 4-8.4 0.9-1.2-4.9z"
     id="path10" />
  <path
     style="fill:#ffffff;stroke-width:0.0677966"
     d="M 13.167965,15.898951 C 12.732567,15.788399 12.387199,15.501684 12.196757,15.09268 12.052304,14.782447 12.035153,14.650772 12.034561,13.847458 l -6.63e-4,-0.898305 -3.7796607,0.0067 c -3.3316587,0.0059 -3.7440641,0.01787 -3.4793405,0.100918 0.3940614,0.123624 0.7447683,0.373959 0.9512156,0.678979 0.2213559,0.327047 0.2731794,0.98629 0.1038793,1.321443 C 5.5245004,15.66196 5.0319855,15.959751 4.403457,15.919729 3.9194215,15.888908 3.5924188,15.706841 3.3193697,15.316135 3.070854,14.960532 3.0169492,14.698707 3.0169492,13.847227 V 13.08339 L 3.6610169,11.79661 C 4.0152542,11.088881 4.3059367,10.456136 4.3069779,10.390508 4.3080193,10.324881 3.843016,8.4025424 3.2736376,6.1186441 L 2.2384043,1.9661017 H 1.1361513 0.03389831 V 1.4902032 1.0143048 L 1.5060113,1.0325761 2.9781242,1.0508475 3.3182599,2.5254237 3.6583956,4 h 6.1611068 c 4.9010266,0 6.1544566,0.017332 6.1285956,0.084746 -0.01788,0.04661 -0.376825,1.3813559 -0.797654,2.9661017 -0.420828,1.5847457 -0.771516,2.8900189 -0.779305,2.9006074 -0.01164,0.015831 -5.0827675,0.5220599 -8.3372407,0.8322709 -0.4474576,0.04265 -0.83411,0.09732 -0.8592275,0.121487 -0.025118,0.02417 -0.1726829,0.28038 -0.3279231,0.569363 L 4.5644927,12 H 9.2822461 14 l 5.42e-4,0.559322 5.43e-4,0.559322 0.271274,0.154918 c 0.743585,0.424642 0.902716,1.496462 0.32061,2.159445 -0.378856,0.431493 -0.895416,0.600402 -1.424964,0.465944 z M 9.3873837,9.4913729 C 11.495509,9.2675607 13.314008,9.0689017 13.428492,9.0499092 l 0.208154,-0.034532 0.531496,-1.9483663 c 0.292323,-1.0716016 0.545139,-1.9865021 0.561812,-2.0331123 0.02409,-0.067341 -1.07813,-0.084746 -5.3667682,-0.084746 -2.9683963,0 -5.3970841,0.015335 -5.3970841,0.034077 0,0.050016 1.1481285,4.7305377 1.1848763,4.8303295 0.017164,0.04661 0.1149617,0.084746 0.2173285,0.084746 0.1023668,0 1.9109511,-0.1831193 4.0190772,-0.4069322 z"
     id="path206" />
</svg>
